<svg width="230" height="95" viewBox="0 0 230 95" fill="none" xmlns="http://www.w3.org/2000/svg">
<path d="M46.4728 45.4066C48.1644 45.7627 52.1887 48.9857 54.7528 59.0285C57.3169 69.0713 69.4962 68.3769 76.6547 68.3769H207.265C218.476 68.3769 227.564 59.2885 227.564 48.0775V36.3253C227.564 21.5739 215.606 9.6156 200.855 9.6156H190.164" stroke="#0C1F42" stroke-width="4.80774" stroke-linecap="round"/>
<circle cx="4.24491" cy="4.24491" r="4.24491" transform="matrix(-0.00163696 0.999999 0.999999 0.00163696 0.0620956 31.9662)" fill="#0C1F42"/>
<path d="M3.20496 57.1744L4.14977 60.0244C5.97042 65.5163 11.8546 68.5377 17.3787 66.8172L29.4608 63.0542" stroke="#0C1F42" stroke-width="3.18368"/>
<path d="M3.24709 33.573L4.20123 30.7261C6.03984 25.2402 11.9339 22.2381 17.4523 23.9767L29.522 27.7792" stroke="#0C1F42" stroke-width="3.18368"/>
<circle cx="4.24491" cy="4.24491" r="4.24491" transform="matrix(-0.00163696 0.999999 0.999999 0.00163696 0.0368195 50.5396)" fill="#0C1F42"/>
<path d="M29.5233 28.0376L38.6647 32.627C43.46 35.0345 46.4835 39.9446 46.4747 45.3103" stroke="#0C1F42" stroke-width="4.77553" stroke-linecap="round"/>
<path d="M29.4644 62.7893L38.6207 58.2299C43.4238 55.8381 46.4634 50.9379 46.4722 45.5722" stroke="#0C1F42" stroke-width="4.77553" stroke-linecap="round"/>
<path d="M92.7727 41.6908C92.7727 45.1104 92.1151 48.009 90.7998 50.3866C89.4846 52.7642 87.7039 54.5701 85.4579 55.8044C83.222 57.0387 80.7129 57.6559 77.9306 57.6559C75.1383 57.6559 72.6241 57.0337 70.3882 55.7892C68.1523 54.5448 66.3767 52.7389 65.0614 50.3714C63.7563 47.9939 63.1037 45.1003 63.1037 41.6908C63.1037 38.2711 63.7563 35.3725 65.0614 32.995C66.3767 30.6174 68.1523 28.8115 70.3882 27.5772C72.6241 26.3428 75.1383 25.7257 77.9306 25.7257C80.7129 25.7257 83.222 26.3428 85.4579 27.5772C87.7039 28.8115 89.4846 30.6174 90.7998 32.995C92.1151 35.3725 92.7727 38.2711 92.7727 41.6908ZM85.0937 41.6908C85.0937 39.6673 84.8053 37.9575 84.2287 36.5613C83.6621 35.1651 82.8426 34.1079 81.7702 33.3895C80.7078 32.6712 79.428 32.3121 77.9306 32.3121C76.4434 32.3121 75.1636 32.6712 74.0911 33.3895C73.0187 34.1079 72.1941 35.1651 71.6174 36.5613C71.0509 37.9575 70.7676 39.6673 70.7676 41.6908C70.7676 43.7142 71.0509 45.4241 71.6174 46.8203C72.1941 48.2164 73.0187 49.2737 74.0911 49.992C75.1636 50.7104 76.4434 51.0695 77.9306 51.0695C79.428 51.0695 80.7078 50.7104 81.7702 49.992C82.8426 49.2737 83.6621 48.2164 84.2287 46.8203C84.8053 45.4241 85.0937 43.7142 85.0937 41.6908ZM125.21 37.4112H117.622C117.521 36.6321 117.314 35.929 117 35.3017C116.687 34.6744 116.272 34.1382 115.756 33.6931C115.24 33.2479 114.628 32.909 113.919 32.6763C113.221 32.4335 112.447 32.3121 111.598 32.3121C110.09 32.3121 108.79 32.6813 107.697 33.4199C106.615 34.1585 105.78 35.2258 105.193 36.622C104.617 38.0182 104.328 39.7078 104.328 41.6908C104.328 43.7547 104.622 45.4848 105.208 46.881C105.805 48.267 106.64 49.3142 107.713 50.0224C108.795 50.7205 110.075 51.0695 111.552 51.0695C112.382 51.0695 113.135 50.9633 113.813 50.7508C114.501 50.5384 115.103 50.2298 115.619 49.8251C116.145 49.4103 116.575 48.9095 116.909 48.3227C117.253 47.7258 117.491 47.053 117.622 46.3043L125.21 46.3498C125.079 47.7258 124.679 49.0815 124.011 50.417C123.354 51.7524 122.448 52.9716 121.295 54.0744C120.142 55.167 118.735 56.0371 117.076 56.6846C115.427 57.3321 113.535 57.6559 111.4 57.6559C108.588 57.6559 106.068 57.0387 103.843 55.8044C101.627 54.56 99.8767 52.749 98.5918 50.3714C97.3069 47.9939 96.6644 45.1003 96.6644 41.6908C96.6644 38.2711 97.317 35.3725 98.6221 32.995C99.9273 30.6174 101.693 28.8115 103.919 27.5772C106.144 26.3428 108.638 25.7257 111.4 25.7257C113.282 25.7257 115.022 25.9887 116.621 26.5148C118.219 27.0308 119.626 27.7896 120.84 28.7912C122.054 29.7827 123.04 31.0019 123.799 32.4486C124.558 33.8954 125.028 35.5496 125.21 37.4112ZM128.332 32.2513V26.1506H154.601V32.2513H145.177V57.231H137.771V32.2513H128.332ZM186.026 41.6908C186.026 45.1104 185.369 48.009 184.053 50.3866C182.738 52.7642 180.957 54.5701 178.711 55.8044C176.475 57.0387 173.966 57.6559 171.184 57.6559C168.392 57.6559 165.878 57.0337 163.642 55.7892C161.406 54.5448 159.63 52.7389 158.315 50.3714C157.01 47.9939 156.357 45.1003 156.357 41.6908C156.357 38.2711 157.01 35.3725 158.315 32.995C159.63 30.6174 161.406 28.8115 163.642 27.5772C165.878 26.3428 168.392 25.7257 171.184 25.7257C173.966 25.7257 176.475 26.3428 178.711 27.5772C180.957 28.8115 182.738 30.6174 184.053 32.995C185.369 35.3725 186.026 38.2711 186.026 41.6908ZM178.347 41.6908C178.347 39.6673 178.059 37.9575 177.482 36.5613C176.916 35.1651 176.096 34.1079 175.024 33.3895C173.961 32.6712 172.681 32.3121 171.184 32.3121C169.697 32.3121 168.417 32.6712 167.345 33.3895C166.272 34.1079 165.448 35.1651 164.871 36.5613C164.304 37.9575 164.021 39.6673 164.021 41.6908C164.021 43.7142 164.304 45.4241 164.871 46.8203C165.448 48.2164 166.272 49.2737 167.345 49.992C168.417 50.7104 169.697 51.0695 171.184 51.0695C172.681 51.0695 173.961 50.7104 175.024 49.992C176.096 49.2737 176.916 48.2164 177.482 46.8203C178.059 45.4241 178.347 43.7142 178.347 41.6908ZM190.252 57.231V26.1506H203.091C205.418 26.1506 207.426 26.5705 209.115 27.4102C210.815 28.2398 212.125 29.4337 213.046 30.9917C213.967 32.5397 214.427 34.376 214.427 36.5006C214.427 38.6556 213.957 40.4868 213.016 41.9943C212.075 43.4917 210.739 44.6349 209.009 45.4241C207.279 46.2031 205.23 46.5926 202.863 46.5926H194.744V40.674H201.467C202.6 40.674 203.546 40.5273 204.305 40.2339C205.074 39.9304 205.655 39.4751 206.05 38.8681C206.445 38.2509 206.642 37.4618 206.642 36.5006C206.642 35.5395 206.445 34.7453 206.05 34.118C205.655 33.4806 205.074 33.0051 204.305 32.6915C203.536 32.3677 202.59 32.2058 201.467 32.2058H197.764V57.231H190.252ZM207.75 43.0263L215.489 57.231H207.294L199.706 43.0263H207.75Z" fill="#0C1F42"/>
<path d="M61.1972 91H59.7199L63.9927 79.3636H65.4472L69.7199 91H68.2427L64.7654 81.2045H64.6745L61.1972 91ZM61.7427 86.4545H67.6972V87.7045H61.7427V86.4545ZM76.3724 91V79.3636H80.3043C81.2171 79.3636 81.9633 79.5284 82.5429 79.858C83.1262 80.1837 83.558 80.625 83.8383 81.1818C84.1186 81.7386 84.2588 82.3598 84.2588 83.0455C84.2588 83.7311 84.1186 84.3542 83.8383 84.9148C83.5618 85.4754 83.1338 85.9223 82.5543 86.2557C81.9747 86.5852 81.2323 86.75 80.327 86.75H77.5088V85.5H80.2815C80.9065 85.5 81.4084 85.392 81.7872 85.1761C82.166 84.9602 82.4406 84.6686 82.6111 84.3011C82.7853 83.9299 82.8724 83.5114 82.8724 83.0455C82.8724 82.5795 82.7853 82.1629 82.6111 81.7955C82.4406 81.428 82.1641 81.1402 81.7815 80.9318C81.399 80.7197 80.8914 80.6136 80.2588 80.6136H77.7815V91H76.3724ZM91.3687 91V79.3636H95.3005C96.2134 79.3636 96.9596 79.5284 97.5391 79.858C98.1225 80.1837 98.5543 80.625 98.8346 81.1818C99.1149 81.7386 99.255 82.3598 99.255 83.0455C99.255 83.7311 99.1149 84.3542 98.8346 84.9148C98.5581 85.4754 98.13 85.9223 97.5505 86.2557C96.971 86.5852 96.2285 86.75 95.3232 86.75H92.505V85.5H95.2778C95.9028 85.5 96.4047 85.392 96.7835 85.1761C97.1622 84.9602 97.4369 84.6686 97.6073 84.3011C97.7816 83.9299 97.8687 83.5114 97.8687 83.0455C97.8687 82.5795 97.7816 82.1629 97.6073 81.7955C97.4369 81.428 97.1604 81.1402 96.7778 80.9318C96.3952 80.7197 95.8876 80.6136 95.255 80.6136H92.7778V91H91.3687ZM116.183 85.1818C116.183 86.4091 115.962 87.4697 115.518 88.3636C115.075 89.2576 114.467 89.947 113.694 90.4318C112.922 90.9167 112.039 91.1591 111.047 91.1591C110.054 91.1591 109.172 90.9167 108.399 90.4318C107.626 89.947 107.018 89.2576 106.575 88.3636C106.132 87.4697 105.91 86.4091 105.91 85.1818C105.91 83.9545 106.132 82.8939 106.575 82C107.018 81.1061 107.626 80.4167 108.399 79.9318C109.172 79.447 110.054 79.2045 111.047 79.2045C112.039 79.2045 112.922 79.447 113.694 79.9318C114.467 80.4167 115.075 81.1061 115.518 82C115.962 82.8939 116.183 83.9545 116.183 85.1818ZM114.819 85.1818C114.819 84.1742 114.651 83.3239 114.314 82.6307C113.98 81.9375 113.528 81.4129 112.956 81.0568C112.388 80.7008 111.751 80.5227 111.047 80.5227C110.342 80.5227 109.704 80.7008 109.132 81.0568C108.564 81.4129 108.111 81.9375 107.774 82.6307C107.441 83.3239 107.274 84.1742 107.274 85.1818C107.274 86.1894 107.441 87.0398 107.774 87.733C108.111 88.4261 108.564 88.9508 109.132 89.3068C109.704 89.6629 110.342 89.8409 111.047 89.8409C111.751 89.8409 112.388 89.6629 112.956 89.3068C113.528 88.9508 113.98 88.4261 114.314 87.733C114.651 87.0398 114.819 86.1894 114.819 85.1818ZM124.802 79.3636V91H123.392V79.3636H124.802ZM141.694 79.3636V91H140.33L133.99 81.8636H133.876V91H132.467V79.3636H133.83L140.194 88.5227H140.308V79.3636H141.694ZM148.717 80.6136V79.3636H157.445V80.6136H153.786V91H152.376V80.6136H148.717ZM164.459 79.3636H166.141L170.096 89.0227H170.232L174.187 79.3636H175.868V91H174.55V82.1591H174.437L170.8 91H169.527L165.891 82.1591H165.777V91H164.459V79.3636ZM183.534 91V79.3636H190.556V80.6136H184.943V84.5455H190.193V85.7955H184.943V89.75H190.647V91H183.534ZM207.163 79.3636V91H205.8L199.459 81.8636H199.345V91H197.936V79.3636H199.3L205.663 88.5227H205.777V79.3636H207.163ZM214.187 80.6136V79.3636H222.914V80.6136H219.255V91H217.846V80.6136H214.187Z" fill="#0C1F42"/>
<circle cx="9.61548" cy="9.61548" r="8.30428" transform="matrix(-1 0 0 1 197.115 0)" fill="white" stroke="#0C1F42" stroke-width="2.6224"/>
<circle cx="3.05947" cy="3.05947" r="3.05947" transform="matrix(-1 0 0 1 190.555 6.55591)" fill="#1360FA"/>
<rect width="18.1148" height="4.79509" rx="1.06558" transform="matrix(-1 0 0 1 31.4709 43.2529)" fill="#1360FA"/>
<rect width="18.1148" height="4.79509" rx="1.06558" transform="matrix(0.0101611 0.999948 0.999948 -0.0101611 20.0959 36.9082)" fill="#1360FA"/>
</svg>
