<svg width="30" height="30" viewBox="0 0 30 30" fill="none" xmlns="http://www.w3.org/2000/svg">
<path d="M30 14.7198C30 18.7782 23.4113 21.9572 15 21.9572C6.58872 21.9572 0 18.7782 0 14.7198C0 11.7462 3.48055 9.19239 9.08342 8.05488C9.20437 8.03038 9.32995 8.04414 9.44273 8.09425C9.55551 8.14436 9.64989 8.22834 9.71278 8.33453C9.77566 8.44072 9.80392 8.56385 9.79365 8.68683C9.78338 8.80981 9.73507 8.92654 9.65544 9.02083C8.58894 10.282 8.00304 11.8798 8.00147 13.5315C8.00147 17.3905 11.141 20.5302 15.0001 20.5302C18.8592 20.5302 21.9987 17.3907 21.9987 13.5315C21.9987 11.8844 21.4112 10.2824 20.3447 9.02083C20.265 8.92657 20.2166 8.80982 20.2063 8.6868C20.196 8.56378 20.2242 8.4406 20.2871 8.33437C20.35 8.22815 20.4444 8.14416 20.5573 8.09407C20.6701 8.04398 20.7958 8.03028 20.9167 8.05488C26.5194 9.19239 30 11.7462 30 14.7198ZM20.0421 13.0242C20.0331 12.933 20.003 12.845 19.9543 12.7673C19.9056 12.6896 19.8395 12.6242 19.7613 12.5763C19.6831 12.5284 19.5948 12.4993 19.5035 12.4912C19.4121 12.4831 19.3201 12.4963 19.2347 12.5297C19.05 12.6025 18.8534 12.6401 18.6549 12.6404C17.7741 12.6404 17.0576 11.9239 17.0576 11.043C17.0576 10.6418 17.2091 10.2573 17.484 9.96018C17.5462 9.89302 17.592 9.8124 17.6179 9.72461C17.6437 9.63683 17.649 9.54425 17.6332 9.45411C17.6174 9.36396 17.581 9.27868 17.5269 9.20491C17.4727 9.13115 17.4022 9.07089 17.3209 9.02885C16.6032 8.65858 15.8076 8.46496 15 8.4641C12.2057 8.4641 9.93232 10.7375 9.93232 13.5316C9.93232 16.3259 12.2057 18.5993 15 18.5993C17.7943 18.5993 20.0675 16.3259 20.0675 13.5316C20.0675 13.3622 20.0591 13.1928 20.0421 13.0242Z" fill="#1360FA"/>
</svg>
